{
    "asset" : {
        "generator" : "Khronos glTF Blender I/O v1.8.19",
        "version" : "2.0"
    },
    "scene" : 0,
    "scenes" : [
        {
            "name" : "Scene",
            "nodes" : [
                0,
                1,
                2
            ]
        }
    ],
    "nodes" : [
        {
            "mesh" : 0,
            "name" : "1",
            "translation" : [
                0,
                0,
                -3.503380537033081
            ]
        },
        {
            "mesh" : 1,
            "name" : "2",
            "translation" : [
                0,
                0,
                0.03229999542236328
            ]
        },
        {
            "mesh" : 2,
            "name" : "3",
            "translation" : [
                0,
                0,
                3.6794826984405518
            ]
        }
    ],
    "meshes" : [
        {
            "name" : "Cube.001",
            "primitives" : [
                {
                    "attributes" : {
                        "POSITION" : 0
                    },
                    "indices" : 1
                }
            ]
        },
        {
            "name" : "Cube.002",
            "primitives" : [
                {
                    "attributes" : {
                        "POSITION" : 2
                    },
                    "indices" : 1
                }
            ]
        },
        {
            "name" : "Cube.003",
            "primitives" : [
                {
                    "attributes" : {
                        "POSITION" : 3
                    },
                    "indices" : 1
                }
            ]
        }
    ],
    "accessors" : [
        {
            "bufferView" : 0,
            "componentType" : 5126,
            "count" : 9,
            "max" : [
                1.4142130613327026,
                0.09046267718076706,
                0.6485320329666138
            ],
            "min" : [
                -1.4142138957977295,
                -0.09046267718076706,
                -1.271031379699707
            ],
            "type" : "VEC3"
        },
        {
            "bufferView" : 1,
            "componentType" : 5123,
            "count" : 42,
            "type" : "SCALAR"
        },
        {
            "bufferView" : 2,
            "componentType" : 5126,
            "count" : 9,
            "max" : [
                1.4142130613327026,
                0.09046267718076706,
                0.6485320329666138
            ],
            "min" : [
                -1.4142138957977295,
                -0.09046267718076706,
                -1.271031379699707
            ],
            "type" : "VEC3"
        },
        {
            "bufferView" : 3,
            "componentType" : 5126,
            "count" : 9,
            "max" : [
                1.4142130613327026,
                0.09046267718076706,
                0.6485320329666138
            ],
            "min" : [
                -1.4142138957977295,
                -0.09046267718076706,
                -1.271031379699707
            ],
            "type" : "VEC3"
        }
    ],
    "bufferViews" : [
        {
            "buffer" : 0,
            "byteLength" : 108,
            "byteOffset" : 0
        },
        {
            "buffer" : 0,
            "byteLength" : 84,
            "byteOffset" : 108
        },
        {
            "buffer" : 0,
            "byteLength" : 108,
            "byteOffset" : 192
        },
        {
            "buffer" : 0,
            "byteLength" : 108,
            "byteOffset" : 300
        }
    ],
    "buffers" : [
        {
            "byteLength" : 408,
            "uri" : "data:application/octet-stream;base64,"
        }
    ]
}
