{"accessors" : [{"bufferView" : 0, "byteOffset" : 0, "componentType" : 5123, "count" : 72, "type" : "SCALAR", "max" : [67], "min" : [0]}, {"bufferView" : 1, "byteOffset" : 0, "componentType" : 5126, "count" : 68, "type" : "VEC3", "max" : [25.521461486816406, 35.39927673339844, 17.079872131347656], "min" : [-24.9980411529541, -40.652435302734375, 0], "name" : "POSITION"}, {"bufferView" : 1, "byteOffset" : 12, "componentType" : 5126, "count" : 68, "type" : "VEC2", "max" : [1, -0], "min" : [0, -1], "name" : "TEXCOORD_0"}], "asset" : {"generator" : "Aspose.3D 22.1", "version" : "2.0"}, "buffers" : [{"uri" : "data:application/octet-stream;base64,", "byteLength" : 1592}], "bufferViews" : [{"buffer" : 0, "byteOffset" : 0, "byteLength" : 144, "target" : 34963}, {"buffer" : 0, "byteOffset" : 148, "byteLength" : 1440, "byteStride" : 20, "target" : 34962}], "materials" : [{"name" : "", "pbrMetallicRoughness" : {"baseColorFactor" : [0, 0.43529411764705883, 0.19215686274509805, 1], "metallicFactor" : 0, "roughnessFactor" : 0}, "emissiveFactor" : [0, 0, 0], "alphaMode" : "OPAQUE", "doubleSided" : false}], "meshes" : [{"primitives" : [{"attributes" : {"POSITION" : 1, "TEXCOORD_0" : 2}, "indices" : 0, "material" : 0, "mode" : 4}], "name" : "Box01"}], "nodes" : [{"matrix" : [-1, 0, 0, 0, 0, 0, 1, 0, 0, 1, 0, 0, 5.309589862823486, 0, -35.28556823730469, 1], "mesh" : 0, "name" : "Box01"}], "scene" : 0, "scenes" : [{"nodes" : [0]}]}